<svg xmlns="http://www.w3.org/2000/svg" width="120" height="40" viewBox="0 0 120 40">
    <g fill="none" fill-rule="evenodd">
        <path fill="#FF4F60" d="M40.237 16.988a9.85 9.85 0 0 0-3.73 3.726c-.9 1.58-1.352 3.37-1.352 5.368 0 1.958.451 3.736 1.351 5.317a9.821 9.821 0 0 0 3.731 3.715c1.587.9 3.356 1.35 5.296 1.35 1.983 0 3.752-.45 5.318-1.35a9.635 9.635 0 0 0 3.687-3.715c.89-1.58 1.33-3.36 1.33-5.317 0-1.998-.44-3.788-1.33-5.368a9.664 9.664 0 0 0-3.687-3.726c-1.566-.9-3.335-1.34-5.318-1.34-1.94 0-3.71.44-5.296 1.34m12.565-3.045a13.367 13.367 0 0 1 5.081 4.992c1.244 2.135 1.866 4.51 1.866 7.147 0 2.627-.611 4.993-1.834 7.106a13.132 13.132 0 0 1-5.092 4.972c-2.166 1.203-4.6 1.799-7.29 1.799-2.691 0-5.125-.596-7.29-1.8a13.027 13.027 0 0 1-5.081-4.97c-1.233-2.114-1.844-4.48-1.844-7.107 0-2.637.61-5.012 1.844-7.147 1.222-2.125 2.915-3.789 5.081-4.992 2.165-1.194 4.599-1.79 7.29-1.79 2.69 0 5.114.596 7.269 1.79"/>
        <path fill="#052156" d="M100.208 17.94c-1.705 1.57-2.744 3.632-3.12 6.196h18.719c-.279-2.564-1.233-4.626-2.863-6.196-1.64-1.56-3.74-2.344-6.292-2.344-2.595 0-4.739.784-6.444 2.344m13.144-4.07c1.94 1.15 3.452 2.741 4.524 4.771s1.608 4.344 1.608 6.939c0 .533-.172.952-.504 1.276-.343.315-.793.472-1.33.472H96.982c.28 2.731 1.362 4.94 3.28 6.635 1.909 1.705 4.29 2.553 7.152 2.553 1.233 0 2.465-.21 3.709-.628 1.244-.418 2.24-.941 2.99-1.569.45-.335.912-.503 1.384-.503.375 0 .75.137 1.125.398.44.398.665.848.665 1.35 0 .429-.182.816-.557 1.15-1.126.933-2.563 1.707-4.3 2.324-1.736.607-3.409.921-5.016.921-2.724 0-5.157-.596-7.312-1.779a12.773 12.773 0 0 1-5.039-4.94c-1.21-2.113-1.812-4.5-1.812-7.158 0-2.7.569-5.107 1.716-7.22 1.136-2.115 2.723-3.758 4.749-4.94 2.037-1.183 4.342-1.77 6.937-1.77 2.519 0 4.76.566 6.7 1.718zM82.402 1.238c.375-.345.836-.523 1.382-.523.579 0 1.05.178 1.405.523.364.355.547.805.547 1.37v28.466c0 1.424.289 2.595.89 3.496.6.89 1.35 1.34 2.272 1.34h1.286c.505 0 .912.177 1.222.533.311.345.461.806.461 1.371s-.214 1.026-.643 1.37c-.418.346-.975.524-1.662.524h-.664c-2.08 0-3.773-.806-5.082-2.417-1.318-1.623-1.972-3.695-1.972-6.217V2.608c0-.565.182-1.015.557-1.37zM76.986 36.41c.344.367.515.838.515 1.403 0 .534-.204.984-.611 1.35-.418.366-.922.544-1.544.544h-1.072c-1.8 0-3.42-.429-4.856-1.277a8.85 8.85 0 0 1-3.345-3.442c-.804-1.445-1.212-3.088-1.212-4.92V16.747H61.54c-.547 0-.976-.168-1.297-.481a1.538 1.538 0 0 1-.494-1.172c0-.503.161-.91.494-1.225.321-.314.75-.471 1.297-.471h3.323V5.654c0-.565.182-1.025.547-1.392.354-.366.825-.555 1.405-.555.579 0 1.05.19 1.425.555.375.367.569.827.569 1.392v7.744h5.778c.547 0 .975.157 1.308.471.321.315.482.722.482 1.225 0 .47-.16.857-.482 1.172-.333.313-.761.481-1.308.481h-5.778V30.07c0 1.696.514 3.087 1.533 4.177 1.018 1.078 2.337 1.621 3.934 1.621h1.383c.546 0 .986.178 1.33.544zM.054 2.661c0-.565.182-1.026.536-1.392.364-.366.825-.555 1.404-.555s1.061.189 1.437.555c.375.366.557.827.557 1.392v14.63a12.544 12.544 0 0 1 4.556-3.767c1.844-.921 3.87-1.371 6.09-1.371 2.583 0 4.931.606 7.032 1.821a13.256 13.256 0 0 1 4.953 4.992c1.212 2.114 1.823 4.468 1.823 7.064 0 2.595-.622 4.96-1.865 7.085a13.396 13.396 0 0 1-5.114 5.024c-2.166 1.213-4.578 1.82-7.237 1.82s-5.082-.607-7.236-1.82a13.495 13.495 0 0 1-5.125-5.024C.622 30.991 0 28.625 0 26.03V14.3L.054 2.66zm14.172 33.803c1.94 0 3.699-.461 5.285-1.371a10.08 10.08 0 0 0 3.742-3.746c.9-1.581 1.351-3.35 1.351-5.317s-.45-3.736-1.35-5.316a9.88 9.88 0 0 0-3.743-3.727c-1.586-.899-3.344-1.339-5.285-1.339-2.701 0-4.995.827-6.882 2.491-1.898 1.664-3.013 3.799-3.356 6.395a.615.615 0 0 1-.043.25c-.043.263-.053.681-.053 1.246 0 1.967.45 3.736 1.35 5.317a10.151 10.151 0 0 0 3.71 3.746c1.565.91 3.323 1.37 5.274 1.37z"/>
    </g>
</svg>
